{
    "asset" : {
        "generator" : "Khronos glTF Blender I/O v0.9.36",
        "version" : "2.0"
    },
    "scene" : 0,
    "scenes" : [
        {
            "extras" : {
                "glTF2ExportSettings" : {
                    "export_all_influences" : 1,
                    "export_apply" : 1,
                    "export_cameras" : 0,
                    "export_colors" : 1,
                    "export_current_frame" : 1,
                    "export_draco_mesh_compression_enable" : 0,
                    "export_draco_mesh_compression_level" : 6,
                    "export_extras" : 1,
                    "export_force_sampling" : 1,
                    "export_format" : "GLTF_SEPARATE",
                    "export_frame_range" : 0,
                    "export_frame_step" : 23,
                    "export_lights" : 0,
                    "export_materials" : 1,
                    "export_morph" : 1,
                    "export_morph_tangent" : 1,
                    "export_normals" : 1,
                    "export_selected" : 0,
                    "export_skins" : 1,
                    "export_tangents" : 0,
                    "export_texcoords" : 1
                }
            },
            "name" : "Scene",
            "nodes" : [
                0,
                1,
                2,
                3
            ]
        }
    ],
    "nodes" : [
        {
            "name" : "Camera",
            "rotation" : [
                0.27147722244262695,
                -0.6441822052001953,
                -0.39973482489585876,
                0.5929093360900879
            ],
            "translation" : [
                8.452619552612305,
                20.409175872802734,
                34.812042236328125
            ]
        },
        {
            "name" : "Spot",
            "rotation" : [
                -0.3702492415904999,
                0.8703702092170715,
                0.3219014108181,
                0.041840553283691406
            ],
            "scale" : [
                0.7966127991676331,
                0.7966127991676331,
                0.7966127991676331
            ],
            "translation" : [
                -12.97607421875,
                8.711101531982422,
                6.893558979034424
            ]
        },
        {
            "mesh" : 0,
            "name" : "ring_logo.001",
            "rotation" : [
                0.7129073143005371,
                0.6327087879180908,
                0.19304817914962769,
                0.23275557160377502
            ],
            "scale" : [
                0.19500833749771118,
                0.1950083076953888,
                0.1950083076953888
            ]
        },
        {
            "mesh" : 1,
            "name" : "center_logo",
            "rotation" : [
                0.23907983303070068,
                -0.09227489680051804,
                0.6347203850746155,
                0.7290104627609253
            ],
            "scale" : [
                0.19500832259655,
                0.1950083076953888,
                0.1950083076953888
            ]
        }
    ],
    "animations" : [
        {
            "channels" : [
                {
                    "sampler" : 0,
                    "target" : {
                        "node" : 0,
                        "path" : "translation"
                    }
                },
                {
                    "sampler" : 1,
                    "target" : {
                        "node" : 0,
                        "path" : "rotation"
                    }
                },
                {
                    "sampler" : 2,
                    "target" : {
                        "node" : 0,
                        "path" : "scale"
                    }
                }
            ],
            "name" : "CameraAction",
            "samplers" : [
                {
                    "input" : 6,
                    "interpolation" : "LINEAR",
                    "output" : 7
                },
                {
                    "input" : 6,
                    "interpolation" : "LINEAR",
                    "output" : 8
                },
                {
                    "input" : 6,
                    "interpolation" : "LINEAR",
                    "output" : 9
                }
            ]
        },
        {
            "channels" : [
                {
                    "sampler" : 0,
                    "target" : {
                        "node" : 1,
                        "path" : "translation"
                    }
                },
                {
                    "sampler" : 1,
                    "target" : {
                        "node" : 1,
                        "path" : "rotation"
                    }
                },
                {
                    "sampler" : 2,
                    "target" : {
                        "node" : 1,
                        "path" : "scale"
                    }
                }
            ],
            "name" : "SpotAction",
            "samplers" : [
                {
                    "input" : 6,
                    "interpolation" : "LINEAR",
                    "output" : 10
                },
                {
                    "input" : 6,
                    "interpolation" : "LINEAR",
                    "output" : 11
                },
                {
                    "input" : 6,
                    "interpolation" : "LINEAR",
                    "output" : 12
                }
            ]
        },
        {
            "channels" : [
                {
                    "sampler" : 0,
                    "target" : {
                        "node" : 2,
                        "path" : "translation"
                    }
                },
                {
                    "sampler" : 1,
                    "target" : {
                        "node" : 2,
                        "path" : "rotation"
                    }
                },
                {
                    "sampler" : 2,
                    "target" : {
                        "node" : 2,
                        "path" : "scale"
                    }
                }
            ],
            "name" : "ring_logo.001Action",
            "samplers" : [
                {
                    "input" : 6,
                    "interpolation" : "LINEAR",
                    "output" : 13
                },
                {
                    "input" : 6,
                    "interpolation" : "LINEAR",
                    "output" : 14
                },
                {
                    "input" : 6,
                    "interpolation" : "LINEAR",
                    "output" : 15
                }
            ]
        },
        {
            "channels" : [
                {
                    "sampler" : 0,
                    "target" : {
                        "node" : 3,
                        "path" : "translation"
                    }
                },
                {
                    "sampler" : 1,
                    "target" : {
                        "node" : 3,
                        "path" : "rotation"
                    }
                },
                {
                    "sampler" : 2,
                    "target" : {
                        "node" : 3,
                        "path" : "scale"
                    }
                }
            ],
            "name" : "center_logoAction",
            "samplers" : [
                {
                    "input" : 16,
                    "interpolation" : "LINEAR",
                    "output" : 17
                },
                {
                    "input" : 16,
                    "interpolation" : "LINEAR",
                    "output" : 18
                },
                {
                    "input" : 16,
                    "interpolation" : "LINEAR",
                    "output" : 19
                }
            ]
        }
    ],
    "materials" : [
        {
            "doubleSided" : true,
            "name" : "Material.001",
            "pbrMetallicRoughness" : {
                "baseColorFactor" : [
                    0,
                    0.15500478446483612,
                    0.8000000715255737,
                    1
                ],
                "metallicFactor" : 0,
                "roughnessFactor" : 0.5
            }
        },
        {
            "doubleSided" : true,
            "name" : "wire_154185229.003",
            "pbrMetallicRoughness" : {
                "baseColorFactor" : [
                    0.862421452999115,
                    0.886979341506958,
                    0.8980000019073486,
                    1
                ],
                "metallicFactor" : 0.699999988079071,
                "roughnessFactor" : 0.1313129961490631
            }
        }
    ],
    "meshes" : [
        {
            "name" : "ring_logo.001",
            "primitives" : [
                {
                    "attributes" : {
                        "POSITION" : 0,
                        "NORMAL" : 1
                    },
                    "indices" : 2,
                    "material" : 0
                }
            ]
        },
        {
            "name" : "center_logo",
            "primitives" : [
                {
                    "attributes" : {
                        "POSITION" : 3,
                        "NORMAL" : 4
                    },
                    "indices" : 5,
                    "material" : 1
                }
            ]
        }
    ],
    "accessors" : [
        {
            "bufferView" : 0,
            "componentType" : 5126,
            "count" : 3136,
            "max" : [
                24.47698211669922,
                24.47693634033203,
                5.000000953674316
            ],
            "min" : [
                -24.47601890563965,
                -24.477062225341797,
                -4.999999046325684
            ],
            "type" : "VEC3"
        },
        {
            "bufferView" : 1,
            "componentType" : 5126,
            "count" : 3136,
            "type" : "VEC3"
        },
        {
            "bufferView" : 2,
            "componentType" : 5123,
            "count" : 9408,
            "type" : "SCALAR"
        },
        {
            "bufferView" : 3,
            "componentType" : 5126,
            "count" : 1608,
            "max" : [
                15.574000358581543,
                16.224000930786133,
                14.35200023651123
            ],
            "min" : [
                -15.574000358581543,
                -16.224000930786133,
                -14.35200023651123
            ],
            "type" : "VEC3"
        },
        {
            "bufferView" : 4,
            "componentType" : 5126,
            "count" : 1608,
            "type" : "VEC3"
        },
        {
            "bufferView" : 5,
            "componentType" : 5123,
            "count" : 4764,
            "type" : "SCALAR"
        },
        {
            "bufferView" : 6,
            "componentType" : 5126,
            "count" : 10,
            "max" : [
                8.625
            ],
            "min" : [
                0
            ],
            "type" : "SCALAR"
        },
        {
            "bufferView" : 7,
            "componentType" : 5126,
            "count" : 10,
            "type" : "VEC3"
        },
        {
            "bufferView" : 8,
            "componentType" : 5126,
            "count" : 10,
            "type" : "VEC4"
        },
        {
            "bufferView" : 9,
            "componentType" : 5126,
            "count" : 10,
            "type" : "VEC3"
        },
        {
            "bufferView" : 10,
            "componentType" : 5126,
            "count" : 10,
            "type" : "VEC3"
        },
        {
            "bufferView" : 11,
            "componentType" : 5126,
            "count" : 10,
            "type" : "VEC4"
        },
        {
            "bufferView" : 12,
            "componentType" : 5126,
            "count" : 10,
            "type" : "VEC3"
        },
        {
            "bufferView" : 13,
            "componentType" : 5126,
            "count" : 10,
            "type" : "VEC3"
        },
        {
            "bufferView" : 14,
            "componentType" : 5126,
            "count" : 10,
            "type" : "VEC4"
        },
        {
            "bufferView" : 15,
            "componentType" : 5126,
            "count" : 10,
            "type" : "VEC3"
        },
        {
            "bufferView" : 16,
            "componentType" : 5126,
            "count" : 9,
            "max" : [
                7.666666666666667
            ],
            "min" : [
                0
            ],
            "type" : "SCALAR"
        },
        {
            "bufferView" : 17,
            "componentType" : 5126,
            "count" : 9,
            "type" : "VEC3"
        },
        {
            "bufferView" : 18,
            "componentType" : 5126,
            "count" : 9,
            "type" : "VEC4"
        },
        {
            "bufferView" : 19,
            "componentType" : 5126,
            "count" : 9,
            "type" : "VEC3"
        }
    ],
    "bufferViews" : [
        {
            "buffer" : 0,
            "byteLength" : 37632,
            "byteOffset" : 0
        },
        {
            "buffer" : 0,
            "byteLength" : 37632,
            "byteOffset" : 37632
        },
        {
            "buffer" : 0,
            "byteLength" : 18816,
            "byteOffset" : 75264
        },
        {
            "buffer" : 0,
            "byteLength" : 19296,
            "byteOffset" : 94080
        },
        {
            "buffer" : 0,
            "byteLength" : 19296,
            "byteOffset" : 113376
        },
        {
            "buffer" : 0,
            "byteLength" : 9528,
            "byteOffset" : 132672
        },
        {
            "buffer" : 0,
            "byteLength" : 40,
            "byteOffset" : 142200
        },
        {
            "buffer" : 0,
            "byteLength" : 120,
            "byteOffset" : 142240
        },
        {
            "buffer" : 0,
            "byteLength" : 160,
            "byteOffset" : 142360
        },
        {
            "buffer" : 0,
            "byteLength" : 120,
            "byteOffset" : 142520
        },
        {
            "buffer" : 0,
            "byteLength" : 120,
            "byteOffset" : 142640
        },
        {
            "buffer" : 0,
            "byteLength" : 160,
            "byteOffset" : 142760
        },
        {
            "buffer" : 0,
            "byteLength" : 120,
            "byteOffset" : 142920
        },
        {
            "buffer" : 0,
            "byteLength" : 120,
            "byteOffset" : 143040
        },
        {
            "buffer" : 0,
            "byteLength" : 160,
            "byteOffset" : 143160
        },
        {
            "buffer" : 0,
            "byteLength" : 120,
            "byteOffset" : 143320
        },
        {
            "buffer" : 0,
            "byteLength" : 36,
            "byteOffset" : 143440
        },
        {
            "buffer" : 0,
            "byteLength" : 108,
            "byteOffset" : 143476
        },
        {
            "buffer" : 0,
            "byteLength" : 144,
            "byteOffset" : 143584
        },
        {
            "buffer" : 0,
            "byteLength" : 108,
            "byteOffset" : 143728
        }
    ],
    "buffers" : [
        {
            "byteLength" : 143836,
            "uri" : "logo_blender.bin"
        }
    ]
}
