{
    "asset" : {
        "generator" : "Khronos glTF Blender I/O v0.9.36",
        "version" : "2.0"
    },
    "scene" : 0,
    "scenes" : [
        {
            "name" : "Scene",
            "nodes" : [
                0,
                1,
                2,
                3
            ]
        }
    ],
    "nodes" : [
        {
            "name" : "Camera",
            "rotation" : [
                0.27147722244262695,
                -0.6441822052001953,
                -0.39973482489585876,
                0.5929093360900879
            ],
            "translation" : [
                8.452619552612305,
                20.409175872802734,
                34.812042236328125
            ]
        },
        {
            "name" : "Spot",
            "rotation" : [
                -0.29338136315345764,
                0.8593801856040955,
                0.3932332694530487,
                -0.1440855860710144
            ],
            "scale" : [
                0.7966127991676331,
                0.7966127991676331,
                0.7966127991676331
            ],
            "translation" : [
                -6.137796401977539,
                4.5990424156188965,
                16.885833740234375
            ]
        },
        {
            "mesh" : 0,
            "name" : "ring_logo.001",
            "rotation" : [
                -0.21592974662780762,
                -0.9079209566116333,
                -0.08311938494443893,
                -0.34949249029159546
            ],
            "scale" : [
                0.19500833749771118,
                0.1950083076953888,
                0.1950083076953888
            ]
        },
        {
            "mesh" : 1,
            "name" : "center_logo",
            "rotation" : [
                -0.3266282081604004,
                0.1693733185529709,
                -0.6186254024505615,
                -0.6942113041877747
            ],
            "scale" : [
                0.19500832259655,
                0.1950083076953888,
                0.1950083076953888
            ]
        }
    ],
    "animations" : [
        {
            "channels" : [
                {
                    "sampler" : 0,
                    "target" : {
                        "node" : 0,
                        "path" : "translation"
                    }
                },
                {
                    "sampler" : 1,
                    "target" : {
                        "node" : 0,
                        "path" : "rotation"
                    }
                },
                {
                    "sampler" : 2,
                    "target" : {
                        "node" : 0,
                        "path" : "scale"
                    }
                }
            ],
            "name" : "CameraAction",
            "samplers" : [
                {
                    "input" : 6,
                    "interpolation" : "STEP",
                    "output" : 7
                },
                {
                    "input" : 6,
                    "interpolation" : "STEP",
                    "output" : 8
                },
                {
                    "input" : 6,
                    "interpolation" : "STEP",
                    "output" : 9
                }
            ]
        },
        {
            "channels" : [
                {
                    "sampler" : 0,
                    "target" : {
                        "node" : 1,
                        "path" : "translation"
                    }
                },
                {
                    "sampler" : 1,
                    "target" : {
                        "node" : 1,
                        "path" : "rotation"
                    }
                },
                {
                    "sampler" : 2,
                    "target" : {
                        "node" : 1,
                        "path" : "scale"
                    }
                }
            ],
            "name" : "SpotAction",
            "samplers" : [
                {
                    "input" : 10,
                    "interpolation" : "CUBICSPLINE",
                    "output" : 11
                },
                {
                    "input" : 10,
                    "interpolation" : "CUBICSPLINE",
                    "output" : 12
                },
                {
                    "input" : 10,
                    "interpolation" : "CUBICSPLINE",
                    "output" : 13
                }
            ]
        },
        {
            "channels" : [
                {
                    "sampler" : 0,
                    "target" : {
                        "node" : 2,
                        "path" : "translation"
                    }
                },
                {
                    "sampler" : 1,
                    "target" : {
                        "node" : 2,
                        "path" : "rotation"
                    }
                },
                {
                    "sampler" : 2,
                    "target" : {
                        "node" : 2,
                        "path" : "scale"
                    }
                }
            ],
            "name" : "ring_logo.001Action",
            "samplers" : [
                {
                    "input" : 14,
                    "interpolation" : "CUBICSPLINE",
                    "output" : 15
                },
                {
                    "input" : 14,
                    "interpolation" : "CUBICSPLINE",
                    "output" : 16
                },
                {
                    "input" : 14,
                    "interpolation" : "CUBICSPLINE",
                    "output" : 17
                }
            ]
        },
        {
            "channels" : [
                {
                    "sampler" : 0,
                    "target" : {
                        "node" : 3,
                        "path" : "translation"
                    }
                },
                {
                    "sampler" : 1,
                    "target" : {
                        "node" : 3,
                        "path" : "rotation"
                    }
                },
                {
                    "sampler" : 2,
                    "target" : {
                        "node" : 3,
                        "path" : "scale"
                    }
                }
            ],
            "name" : "center_logoAction",
            "samplers" : [
                {
                    "input" : 18,
                    "interpolation" : "CUBICSPLINE",
                    "output" : 19
                },
                {
                    "input" : 20,
                    "interpolation" : "CUBICSPLINE",
                    "output" : 21
                },
                {
                    "input" : 20,
                    "interpolation" : "CUBICSPLINE",
                    "output" : 22
                }
            ]
        }
    ],
    "materials" : [
        {
            "doubleSided" : true,
            "name" : "Material.001",
            "pbrMetallicRoughness" : {
                "baseColorFactor" : [
                    0,
                    0.15500478446483612,
                    0.8000000715255737,
                    1
                ],
                "metallicFactor" : 0,
                "roughnessFactor" : 0.5
            }
        },
        {
            "doubleSided" : true,
            "name" : "wire_154185229.003",
            "pbrMetallicRoughness" : {
                "baseColorFactor" : [
                    0.862421452999115,
                    0.886979341506958,
                    0.8980000019073486,
                    1
                ],
                "metallicFactor" : 0.699999988079071,
                "roughnessFactor" : 0.1313129961490631
            }
        }
    ],
    "meshes" : [
        {
            "name" : "ring_logo.001",
            "primitives" : [
                {
                    "attributes" : {
                        "POSITION" : 0,
                        "NORMAL" : 1
                    },
                    "indices" : 2,
                    "material" : 0
                }
            ]
        },
        {
            "name" : "center_logo",
            "primitives" : [
                {
                    "attributes" : {
                        "POSITION" : 3,
                        "NORMAL" : 4
                    },
                    "indices" : 5,
                    "material" : 1
                }
            ]
        }
    ],
    "accessors" : [
        {
            "bufferView" : 0,
            "componentType" : 5126,
            "count" : 1568,
            "max" : [
                24.47698211669922,
                24.47693634033203,
                5.000000953674316
            ],
            "min" : [
                -24.47601890563965,
                -24.477062225341797,
                -4.999999046325684
            ],
            "type" : "VEC3"
        },
        {
            "bufferView" : 1,
            "componentType" : 5126,
            "count" : 1568,
            "type" : "VEC3"
        },
        {
            "bufferView" : 2,
            "componentType" : 5123,
            "count" : 4704,
            "type" : "SCALAR"
        },
        {
            "bufferView" : 3,
            "componentType" : 5126,
            "count" : 1608,
            "max" : [
                15.574000358581543,
                16.224000930786133,
                14.35200023651123
            ],
            "min" : [
                -15.574000358581543,
                -16.224000930786133,
                -14.35200023651123
            ],
            "type" : "VEC3"
        },
        {
            "bufferView" : 4,
            "componentType" : 5126,
            "count" : 1608,
            "type" : "VEC3"
        },
        {
            "bufferView" : 5,
            "componentType" : 5123,
            "count" : 4764,
            "type" : "SCALAR"
        },
        {
            "bufferView" : 6,
            "componentType" : 5126,
            "count" : 1,
            "max" : [
                0
            ],
            "min" : [
                0
            ],
            "type" : "SCALAR"
        },
        {
            "bufferView" : 7,
            "componentType" : 5126,
            "count" : 1,
            "type" : "VEC3"
        },
        {
            "bufferView" : 8,
            "componentType" : 5126,
            "count" : 1,
            "type" : "VEC4"
        },
        {
            "bufferView" : 9,
            "componentType" : 5126,
            "count" : 1,
            "type" : "VEC3"
        },
        {
            "bufferView" : 10,
            "componentType" : 5126,
            "count" : 3,
            "max" : [
                8.75
            ],
            "min" : [
                0
            ],
            "type" : "SCALAR"
        },
        {
            "bufferView" : 11,
            "componentType" : 5126,
            "count" : 9,
            "type" : "VEC3"
        },
        {
            "bufferView" : 12,
            "componentType" : 5126,
            "count" : 9,
            "type" : "VEC4"
        },
        {
            "bufferView" : 13,
            "componentType" : 5126,
            "count" : 9,
            "type" : "VEC3"
        },
        {
            "bufferView" : 14,
            "componentType" : 5126,
            "count" : 2,
            "max" : [
                8.75
            ],
            "min" : [
                0
            ],
            "type" : "SCALAR"
        },
        {
            "bufferView" : 15,
            "componentType" : 5126,
            "count" : 6,
            "type" : "VEC3"
        },
        {
            "bufferView" : 16,
            "componentType" : 5126,
            "count" : 6,
            "type" : "VEC4"
        },
        {
            "bufferView" : 17,
            "componentType" : 5126,
            "count" : 6,
            "type" : "VEC3"
        },
        {
            "bufferView" : 18,
            "componentType" : 5126,
            "count" : 3,
            "max" : [
                8.333333333333334
            ],
            "min" : [
                0
            ],
            "type" : "SCALAR"
        },
        {
            "bufferView" : 19,
            "componentType" : 5126,
            "count" : 9,
            "type" : "VEC3"
        },
        {
            "bufferView" : 20,
            "componentType" : 5126,
            "count" : 2,
            "max" : [
                8.333333333333334
            ],
            "min" : [
                0
            ],
            "type" : "SCALAR"
        },
        {
            "bufferView" : 21,
            "componentType" : 5126,
            "count" : 6,
            "type" : "VEC4"
        },
        {
            "bufferView" : 22,
            "componentType" : 5126,
            "count" : 6,
            "type" : "VEC3"
        }
    ],
    "bufferViews" : [
        {
            "buffer" : 0,
            "byteLength" : 18816,
            "byteOffset" : 0
        },
        {
            "buffer" : 0,
            "byteLength" : 18816,
            "byteOffset" : 18816
        },
        {
            "buffer" : 0,
            "byteLength" : 9408,
            "byteOffset" : 37632
        },
        {
            "buffer" : 0,
            "byteLength" : 19296,
            "byteOffset" : 47040
        },
        {
            "buffer" : 0,
            "byteLength" : 19296,
            "byteOffset" : 66336
        },
        {
            "buffer" : 0,
            "byteLength" : 9528,
            "byteOffset" : 85632
        },
        {
            "buffer" : 0,
            "byteLength" : 4,
            "byteOffset" : 95160
        },
        {
            "buffer" : 0,
            "byteLength" : 12,
            "byteOffset" : 95164
        },
        {
            "buffer" : 0,
            "byteLength" : 16,
            "byteOffset" : 95176
        },
        {
            "buffer" : 0,
            "byteLength" : 12,
            "byteOffset" : 95192
        },
        {
            "buffer" : 0,
            "byteLength" : 12,
            "byteOffset" : 95204
        },
        {
            "buffer" : 0,
            "byteLength" : 108,
            "byteOffset" : 95216
        },
        {
            "buffer" : 0,
            "byteLength" : 144,
            "byteOffset" : 95324
        },
        {
            "buffer" : 0,
            "byteLength" : 108,
            "byteOffset" : 95468
        },
        {
            "buffer" : 0,
            "byteLength" : 8,
            "byteOffset" : 95576
        },
        {
            "buffer" : 0,
            "byteLength" : 72,
            "byteOffset" : 95584
        },
        {
            "buffer" : 0,
            "byteLength" : 96,
            "byteOffset" : 95656
        },
        {
            "buffer" : 0,
            "byteLength" : 72,
            "byteOffset" : 95752
        },
        {
            "buffer" : 0,
            "byteLength" : 12,
            "byteOffset" : 95824
        },
        {
            "buffer" : 0,
            "byteLength" : 108,
            "byteOffset" : 95836
        },
        {
            "buffer" : 0,
            "byteLength" : 8,
            "byteOffset" : 95944
        },
        {
            "buffer" : 0,
            "byteLength" : 96,
            "byteOffset" : 95952
        },
        {
            "buffer" : 0,
            "byteLength" : 72,
            "byteOffset" : 96048
        }
    ],
    "buffers" : [
        {
            "byteLength" : 96120,
            "uri" : "logo_blender.bin"
        }
    ]
}
